<svg data-v-0dd9719b="" version="1.0" xmlns="http://www.w3.org/2000/svg" xmlns:xlink="http://www.w3.org/1999/xlink" width="100%" height="100%" viewBox="0 0 340.000000 250.000000" preserveAspectRatio="xMidYMid meet" color-interpolation-filters="sRGB" style="margin: auto;"> <rect data-v-0dd9719b="" x="0" y="0" width="100%" height="100%" fill="#ffffff" fill-opacity="1" class="background"></rect> <rect data-v-0dd9719b="" x="0" y="0" width="100%" height="100%" fill="url(#watermark)" fill-opacity="1" class="watermarklayer"></rect> <g data-v-0dd9719b="" fill="#0bbf64" class="icon-text-wrapper icon-svg-group iconsvg" transform="translate(94.16000364720821,78.01924896240234)"><g class="iconsvg-imagesvg" transform="translate(45.839996337890625,0)"><g><rect fill="#0bbf64" fill-opacity="0" stroke-width="2" x="0" y="0" width="60" height="59.921502831291015" class="image-rect"></rect> <svg filter="url(#colors2115582982)" x="0" y="0" width="60" height="59.921502831291015" filtersec="colorsf8227534870" class="image-svg-svg primary" style="overflow: visible;"><svg xmlns="http://www.w3.org/2000/svg" viewBox="1.9213333129882812 2 60.07866668701172 60" x="0px" y="0px"><g><g data-name="Glyph"><path d="M5,2H3A1,1,0,0,0,2,3S1.823,44.124,2,57.83c.07,5.439,7.874,5.522,8,.17.1-4.272,0-17.091,0-17.091a1,1,0,0,1,.8-.981A5.074,5.074,0,0,0,15,35V13C15,6.63,10.79,2,5,2Z"></path><path d="M37.214,10.548A25.337,25.337,0,0,0,32,10a25.666,25.666,0,0,0-14.564,4.487,1.012,1.012,0,0,0-.436.835v6.421a1,1,0,0,0,1.694.71A18.8,18.8,0,0,1,32,17a18.613,18.613,0,0,1,4.758.614A.993.993,0,0,0,38,16.649V11.531A1,1,0,0,0,37.214,10.548Z"></path><path d="M12.659,41.443l-.072.03a.977.977,0,0,0-.587.913v9.456a2,2,0,0,0,.486,1.318,25.889,25.889,0,0,0,32.016,5.6,1,1,0,0,0,.516-.885c-.006-1.2-.011-3.955-.015-5.91a.994.994,0,0,0-1.584-.8A18.76,18.76,0,0,1,32,55,18.957,18.957,0,0,1,14.013,42.014,1,1,0,0,0,12.659,41.443Z"></path><path d="M62,18V5a3,3,0,0,0-6,0v8a1,1,0,0,1-2,0V5a3,3,0,0,0-6,0v8a1,1,0,0,1-2,0V5a3,3,0,0,0-6,0V18a8.013,8.013,0,0,0,7,7.938V58a4,4,0,0,0,8,0V25.938A8.013,8.013,0,0,0,62,18Z"></path><path d="M36.112,48.417A13,13,0,0,0,43.6,30.16a2.108,2.108,0,0,0-3.38-.59,6.156,6.156,0,0,1-3.888,1.685,1,1,0,0,0-.71,1.436,12.665,12.665,0,0,1,.984,3.5.5.5,0,0,0,.768.332.971.971,0,0,1,1.394.133,1,1,0,0,1-.139,1.408c-.59.484-1.111.961-1.593,1.44a.992.992,0,0,0-.283.63A20.9,20.9,0,0,1,34.9,47.062,1,1,0,0,0,36.112,48.417Z"></path><path d="M33.9,33.726C32.313,30,26.862,27.569,22.76,25.35a3.206,3.206,0,0,0-4.5,2.01c-1.157,4.411-1.646,10.049.106,14.1,2.7,5.388,8.516,6.933,11.835,7.411a1.981,1.981,0,0,0,1.984-.94C33.57,45.636,36.614,40.076,33.9,33.726Zm-2.49,11.321a17.787,17.787,0,0,1-.936,1.87c-.175-.029-.378-.066-.593-.108-.439-3.361-2.392-9.555-6.184-13.348a1,1,0,1,1,1.414-1.414c3.456,3.456,5.486,8.59,6.358,12.376A1.006,1.006,0,0,1,31.412,45.047Z"></path><path d="M58,36a44.242,44.242,0,0,0-.68-5.84.176.176,0,0,0-.32.09c.022,2.862-.012,8.588,0,11.45a.177.177,0,0,0,.33.08A15.454,15.454,0,0,0,58,36Z"></path></g></g></svg></svg> <defs><filter id="colors2115582982"><feColorMatrix type="matrix" values="0 0 0 0 0.04296875  0 0 0 0 0.74609375  0 0 0 0 0.390625  0 0 0 1 0" class="icon-fecolormatrix"></feColorMatrix></filter> <filter id="colorsf8227534870"><feColorMatrix type="matrix" values="0 0 0 0 0.99609375  0 0 0 0 0.99609375  0 0 0 0 0.99609375  0 0 0 1 0" class="icon-fecolormatrix"></feColorMatrix></filter> <filter id="colorsb16282670"><feColorMatrix type="matrix" values="0 0 0 0 0  0 0 0 0 0  0 0 0 0 0  0 0 0 1 0" class="icon-fecolormatrix"></feColorMatrix></filter></defs></g></g> <g transform="translate(0,66.92150115966797)"><g data-gra="path-name" fill-rule="" class="tp-name iconsvg-namesvg"><g transform="scale(1)"><g><path d="M19.52 2.46L19.52 2.46 19.23 3.34Q18.61 3.39 18.3 3.39L18.3 3.39Q16.87 3.39 15.97 2.19 15.08 0.98 15.08-0.96L15.08-0.96Q15.08-2.13 15.61-5.39 16.15-8.65 16.87-11.35L16.87-11.35Q17.01-11.95 17.01-12.14 17.01-12.33 16.84-12.33 16.68-12.33 15.78-10.55 14.88-8.77 13.64-6.18 12.4-3.58 12.22-3.21 12.04-2.84 11.93-2.62 11.83-2.39 11.5-1.8 11.18-1.22 10.89-0.76L10.89-0.76Q10.11 0.43 9.65 0.43L9.65 0.43Q9.34 0.43 8.97 0.26 8.6 0.1 8.48-0.1L8.48-0.1Q8.22-0.5 8.22-2.63L8.22-2.63Q8.22-7.07 8.94-11.11L8.94-11.11Q9.17-12.45 9.17-12.52L9.17-12.52Q9.17-12.76 8.98-12.76L8.98-12.76Q8.6-12.76 7.76-10.37L7.76-10.37 7.07-8.39Q5.54-4.06 3.98-1.65 2.41 0.76 0.38 1.74L0.38 1.74-0.24 0.43Q2.08-1.29 3.33-3.08 4.59-4.87 6.07-8.86L6.07-8.86 6.88-11.04Q7.72-13.31 8.34-14.28 8.96-15.24 9.72-15.24L9.72-15.24Q10.99-15.24 10.99-13.71L10.99-13.71Q10.99-13.59 10.54-8.88 10.08-4.16 10.08-2.65L10.08-2.65Q10.08-2.22 10.23-2.2L10.23-2.2Q10.35-2.2 10.49-2.44L10.49-2.44Q12.42-5.66 14.19-9.46L14.19-9.46Q14.41-9.94 14.93-11.11 15.46-12.28 15.96-13.19 16.46-14.1 16.72-14.3 16.99-14.5 17.56-14.5 18.13-14.5 18.55-14.08 18.97-13.67 18.97-13.09 18.97-12.52 18.8-11.78L18.8-11.78Q16.94-2.68 16.94-0.9 16.94 0.88 17.51 1.54 18.09 2.2 19.52 2.46ZM25.09-6.71L26.33-7.1Q26.95-6.07 26.95-4.83L26.95-4.83Q26.95-2.89 25.61-1.37 24.27 0.14 22.46 0.14L22.46 0.14Q21.07 0.14 20.3-0.66 19.52-1.46 19.52-2.87L19.52-2.87Q19.52-5.14 21.29-6.94 23.06-8.74 25.25-8.74L25.25-8.74Q25.66-8.74 25.83-8.72L25.83-8.72 25.9-7.93Q23.99-7.93 22.72-6.83 21.45-5.73 21.45-4.01L21.45-4.01Q21.45-2.99 21.96-2.35 22.46-1.72 23.43-1.72 24.39-1.72 24.97-2.58 25.54-3.44 25.54-4.6 25.54-5.76 25.09-6.71L25.09-6.71ZM43.6-3.11L43.6-3.11 44.1-2.63Q42.74-0.19 40.97-0.19L40.97-0.19Q40.26-0.19 39.86-0.59 39.47-0.98 39.47-1.64 39.47-2.29 40.26-3.89 41.05-5.5 41.09-6.33L41.09-6.33Q41.12-6.71 40.87-6.95 40.62-7.19 40.19-7.19 39.76-7.19 39.31-6.99 38.87-6.79 38.45-6.33 38.04-5.88 37.69-5.45 37.34-5.02 36.92-4.23 36.51-3.44 36.22-2.91L36.22-2.91Q35.72-1.94 34.79 0.02L34.79 0.02 33.35-0.48Q33.35-0.55 34.14-3.18 34.93-5.81 34.93-6.31 34.93-6.81 34.69-7.04 34.45-7.26 34.09-7.26L34.09-7.26Q33.02-7.26 31.12-4.59 29.22-1.91 28.69-0.02L28.69-0.02 27.33-0.48Q27.45-1.74 28.46-5.03 29.46-8.31 30.15-9.51L30.15-9.51 31.23-9.13Q30.49-7.48 30.2-6.34 29.91-5.21 29.7-3.92L29.7-3.92Q31.75-6.86 33.14-8.04 34.52-9.22 35.65-9.22L35.65-9.22Q36.86-9.22 36.86-8L36.86-8Q36.86-7.53 36.45-6.12 36.03-4.71 35.79-3.89L35.79-3.89Q39.09-9.2 41.69-9.2L41.69-9.2Q42.34-9.2 42.72-8.8 43.1-8.41 43.1-7.63 43.1-6.86 42.2-5.07 41.31-3.27 41.31-2.81 41.31-2.34 41.5-2.13 41.69-1.91 41.98-1.91L41.98-1.91Q42.6-1.91 43.6-3.11ZM60.85-3.11L60.85-3.11 61.35-2.63Q59.99-0.19 58.22-0.19L58.22-0.19Q57.51-0.19 57.11-0.59 56.72-0.98 56.72-1.64 56.72-2.29 57.51-3.89 58.3-5.5 58.34-6.33L58.34-6.33Q58.37-6.71 58.12-6.95 57.87-7.19 57.44-7.19 57.01-7.19 56.56-6.99 56.12-6.79 55.7-6.33 55.29-5.88 54.94-5.45 54.59-5.02 54.17-4.23 53.76-3.44 53.47-2.91L53.47-2.91Q52.97-1.94 52.04 0.02L52.04 0.02 50.6-0.48Q50.6-0.55 51.39-3.18 52.18-5.81 52.18-6.31 52.18-6.81 51.94-7.04 51.7-7.26 51.34-7.26L51.34-7.26Q50.27-7.26 48.37-4.59 46.47-1.91 45.94-0.02L45.94-0.02 44.58-0.48Q44.7-1.74 45.7-5.03 46.71-8.31 47.4-9.51L47.4-9.51 48.48-9.13Q47.74-7.48 47.45-6.34 47.16-5.21 46.95-3.92L46.95-3.92Q49-6.86 50.39-8.04 51.77-9.22 52.9-9.22L52.9-9.22Q54.11-9.22 54.11-8L54.11-8Q54.11-7.53 53.7-6.12 53.28-4.71 53.04-3.89L53.04-3.89Q56.34-9.2 58.94-9.2L58.94-9.2Q59.59-9.2 59.97-8.8 60.35-8.41 60.35-7.63 60.35-6.86 59.45-5.07 58.56-3.27 58.56-2.81 58.56-2.34 58.75-2.13 58.94-1.91 59.23-1.91L59.23-1.91Q59.85-1.91 60.85-3.11ZM69.81-0.74L71.75-1.51 71.82-0.88Q71.72-0.81 69.6-0.02L69.6-0.02Q69.31 1.55 68.87 3.09 68.43 4.63 67.98 5.44 67.54 6.24 66.94 7.02L66.94 7.02Q65.75 8.6 63.72 8.6L63.72 8.6Q62.72 8.6 62.12 7.98 61.52 7.36 61.52 6.28L61.52 6.28Q61.52 2.15 68.45-0.36L68.45-0.36 69.74-4.9Q67.69-1.82 66.04-1.1L66.04-1.1Q65.22-0.72 64.33-0.72 63.43-0.72 62.89-1.29 62.36-1.86 62.36-2.96 62.36-4.06 63.11-6.03 63.86-8 64.79-9.34L64.79-9.34 65.96-8.84Q65.89-8.77 65.3-7.57L65.3-7.57Q64.24-5.4 64.24-4.35 64.24-3.3 64.65-2.94 65.06-2.58 65.85-2.58 66.63-2.58 67.63-3.52 68.62-4.47 70.7-7.26L70.7-7.26 71.56-6.76Q71.36-5.97 70.71-3.91 70.05-1.84 69.81-0.74L69.81-0.74ZM68.31 0.36L68.31 0.36Q66.8 1.05 65.65 1.94L65.65 1.94Q63.5 3.56 63.5 5.09L63.5 5.09Q63.5 5.66 63.84 6.02 64.17 6.38 64.67 6.38L64.67 6.38Q67.06 6.38 68.31 0.36ZM73.4-15.17L74.73-14.57 72.82-11.66 72.01-11.66 73.4-15.17ZM81.78-9.34L81.78-9.34 81.57-8.41Q81.16-8.46 80.51-8.46L80.51-8.46Q78.13-8.46 78.13-6.88L78.13-6.88Q78.13-6.55 79.09-4.92 80.06-3.3 80.06-2.75L80.06-2.75Q80.06-1.46 79.19-0.73 78.32 0 76.86 0L76.86 0Q74.85 0 73.63-2.22L73.63-2.22 74.54-2.87Q74.88-2.6 75.26-2.23 75.64-1.86 75.83-1.72L75.83-1.72Q76.29-1.31 76.84-1.31 77.39-1.31 77.79-1.71 78.2-2.1 78.2-2.69 78.2-3.27 77.16-4.87 76.12-6.47 76.12-7.12L76.12-7.12Q76.12-8.29 77.11-8.91 78.1-9.53 79.71-9.53 81.33-9.53 81.78-9.34Z" transform="translate(0.24000000953674316, 18.440000534057617)"></path></g> <!----> <!----> <!----> <!----> <!----> <!----> <g data-gra="path-name-1" fill="#5273FF" transform="translate(85.0199966430664,0)"><g transform="scale(1)"><path d="M17.92-15.22L17.92-15.22 18.99-14.69Q17.39-11.56 15.67-6.64L15.67-6.64Q16.77-6.64 17.18-6.55L17.18-6.55 17.08-5.18Q16.58-5.02 15.12-5.02L15.12-5.02Q14.62-3.63 14.53-2.77 14.43-1.91 14.37-1.1 14.31-0.29 14.29 0L14.29 0 12.95 0Q12.83-0.41 12.83-0.84L12.83-0.84Q12.83-2.32 13.62-5.02L13.62-5.02Q12.18-5.02 9.27-4.68L9.27-4.68Q9.15-4.3 8.67-3.26 8.19-2.22 7.73-1.46 7.26-0.69 6.47 0.22 5.69 1.12 4.83 1.74L4.83 1.74Q2.37 3.51 0.05 3.51L0.05 3.51Q-0.91 3.51-1.53 2.91-2.15 2.32-2.15 1.41L-2.15 1.41Q-2.15-0.88 0.49-2.76 3.13-4.63 7.81-5.76L7.81-5.76Q9.58-10.92 12.78-13.12L12.78-13.12Q9.32-13.07 7.07-11.95 4.83-10.82 4.83-9.08L4.83-9.08Q4.83-8.53 4.99-8.14 5.16-7.74 5.78-6.9L5.78-6.9 4.97-6.14Q3.92-6.81 3.37-7.76 2.82-8.72 2.82-9.6L2.82-9.6Q2.82-11.09 4.4-12.34 5.97-13.59 8.31-14.28 10.66-14.96 13.07-14.96L13.07-14.96Q14.29-14.96 14.75-14.78 15.22-14.6 15.22-14.11 15.22-13.62 14.53-13.19L14.53-13.19Q11.54-11.32 9.72-6.12L9.72-6.12Q11.13-6.36 14.1-6.64L14.1-6.64Q15.24-9.99 15.95-11.6 16.65-13.21 17.92-15.22ZM1.97 1.86Q2.84 1.86 4.03 1.09 5.21 0.31 6.01-0.94 6.81-2.2 7.38-4.4L7.38-4.4Q4.2-3.87 2.26-2.54 0.31-1.22 0.31 0.45L0.31 0.45Q0.31 1.12 0.7 1.49 1.1 1.86 1.97 1.86ZM26.64-2.82L26.64-2.82 27.19-2.39Q26.45-1.36 25.16-0.68 23.87 0 22.65 0 21.43 0 20.69-0.72 19.95-1.43 19.95-2.6L19.95-2.6Q19.95-4.8 22.28-6.93 24.61-9.05 27-9.05L27-9.05Q28.57-9.05 28.57-7.81L28.57-7.81Q28.57-6.52 26.91-5.21 25.25-3.89 22.24-2.82L22.24-2.82Q22.46-2.27 22.91-1.96 23.37-1.65 23.84-1.65L23.84-1.65Q24.87-1.65 26.64-2.82ZM22.12-3.54L22.12-3.54Q24.06-4.2 25.44-5.21 26.83-6.21 26.83-7.05L26.83-7.05Q26.83-7.36 26.59-7.6 26.35-7.84 26.04-7.84L26.04-7.84Q24.92-7.84 23.62-6.44 22.31-5.04 22.12-3.54ZM32.78-2.29L32.78-2.29 33.28-1.89Q32.47-0.62 31.88-0.06 31.3 0.5 30.58 0.5 29.86 0.5 29.41-0.07 28.96-0.65 28.96-1.51L28.96-1.51Q28.96-3.18 31.15-8.71 33.35-14.24 35.67-18.44L35.67-18.44 36.72-17.87Q34.38-13.33 32.49-8.85 30.61-4.37 30.61-2.41L30.61-2.41Q30.61-1.29 31.44-1.29L31.44-1.29Q32.11-1.29 32.78-2.29ZM39.09-4.4Q40.9-7.12 42.24-8.11 43.58-9.1 44.58-9.1 45.59-9.1 46.13-8.49 46.68-7.88 46.68-6.95L46.68-6.95Q46.68-4.37 44.83-2.19 42.98 0 40.66 0L40.66 0Q39.64 0 39.04-0.36L39.04-0.36 39.61-1.39Q40.85-1.22 41.17-1.22L41.17-1.22Q42.46-1.22 43.58-2.72 44.7-4.23 44.7-5.81L44.7-5.81Q44.7-6.4 44.35-6.8 44.01-7.19 43.46-7.19L43.46-7.19Q42.14-7.19 40.48-4.87 38.82-2.56 37.38 0.87 35.93 4.3 34.86 8.17L34.86 8.17 33.42 7.67Q33.47 7.53 34.32 5.2 35.17 2.87 35.98 0.57L35.98 0.57Q38.23-5.73 38.23-6.33L38.23-6.33Q38.23-7.86 37.61-9.1L37.61-9.1 38.8-9.7Q39.54-8.67 39.54-7.54 39.54-6.4 39.09-4.4L39.09-4.4ZM54.04-2.82L54.04-2.82 54.59-2.39Q53.85-1.36 52.56-0.68 51.27 0 50.05 0 48.83 0 48.09-0.72 47.35-1.43 47.35-2.6L47.35-2.6Q47.35-4.8 49.68-6.93 52.01-9.05 54.4-9.05L54.4-9.05Q55.98-9.05 55.98-7.81L55.98-7.81Q55.98-6.52 54.32-5.21 52.66-3.89 49.65-2.82L49.65-2.82Q49.86-2.27 50.32-1.96 50.77-1.65 51.25-1.65L51.25-1.65Q52.28-1.65 54.04-2.82ZM49.53-3.54L49.53-3.54Q51.46-4.2 52.85-5.21 54.23-6.21 54.23-7.05L54.23-7.05Q54.23-7.36 54-7.6 53.76-7.84 53.45-7.84L53.45-7.84Q52.32-7.84 51.02-6.44 49.72-5.04 49.53-3.54ZM63.15-8.46L63.15-8.46Q63.74-8.46 64.13-8.05 64.51-7.65 64.51-7L64.51-7Q64.51-5.71 63.03-4.28L63.03-4.28 62.45-4.73Q62.79-5.47 62.79-5.81L62.79-5.81Q62.79-6.45 62.07-6.45 61.35-6.45 60.71-5.54 60.06-4.63 59.19-2.74 58.32-0.84 57.87-0.05L57.87-0.05 56.5-0.65Q57.82-3.63 58.01-4.16L58.01-4.16Q58.65-6.02 58.65-8.89L58.65-8.89 59.99-9.25Q59.92-7.69 59.78-6.84 59.63-6 59.08-4.09L59.08-4.09Q61.5-8.46 63.15-8.46Z" transform="translate(2.1500000953674316, 18.440000534057617)"></path></g></g></g></g> <!----></g></g><defs v-gra="od"></defs></svg>