<svg data-v-0dd9719b="" version="1.0" xmlns="http://www.w3.org/2000/svg" xmlns:xlink="http://www.w3.org/1999/xlink" width="100%" height="100%" viewBox="0 0 340.000000 250.000000" preserveAspectRatio="xMidYMid meet" color-interpolation-filters="sRGB" style="margin: auto;"> <rect data-v-0dd9719b="" x="0" y="0" width="100%" height="100%" fill="#ffffff" fill-opacity="1" class="background"></rect> <rect data-v-0dd9719b="" x="0" y="0" width="100%" height="100%" fill="url(#watermark)" fill-opacity="1" class="watermarklayer"></rect> <g data-v-0dd9719b="" fill="#eb001b" class="icon-text-wrapper icon-svg-group iconsvg" transform="translate(100.3050537109375,87.28502655029297)"><g class="iconsvg-imagesvg" transform="translate(0,0)"><g><rect fill="#eb001b" fill-opacity="0" stroke-width="2" x="0" y="0" width="60" height="75.42995071909885" class="image-rect"></rect> <svg filter="url(#colors5845126659)" x="0" y="0" width="60" height="75.42995071909885" filtersec="colorsf846656469" class="image-svg-svg primary" style="overflow: visible;"><svg xmlns="http://www.w3.org/2000/svg" xmlns:xlink="http://www.w3.org/1999/xlink" version="1.1" x="0px" y="0px" viewBox="0 0 400.8999938964844 504" xml:space="preserve"><g><path d="M347.641,224.403l-44.37-54.45c-10.197-12.508-28.672-14.395-41.19-4.202l-11.196,9.138   c-6.046,4.922-9.817,11.9-10.626,19.653c-7.855-2.048-23.621-5.541-39.809-5.541c-16.186,0-31.955,3.492-39.814,5.541   c-0.792-7.632-4.554-14.718-10.617-19.649l-11.204-9.144c-12.514-10.188-30.989-8.303-41.187,4.206L53.26,224.402   c-10.193,12.508-8.307,30.98,4.205,41.18l11.208,9.129c5.421,4.419,11.962,6.569,18.465,6.569c8.501,0,16.936-3.676,22.713-10.764   l44.372-54.452c3.127-3.842,5.188-8.344,6.071-13.139C166.43,201.23,183.445,197,200.45,197c16.992,0,33.988,4.224,40.133,5.921   c0.879,4.774,2.944,9.278,6.096,13.145l44.371,54.451c5.778,7.088,14.211,10.763,22.712,10.763c6.501,0,13.044-2.151,18.464-6.568   l11.211-9.131C355.948,255.383,357.833,236.91,347.641,224.403z M119.82,215.612c-4.862,5.963-11.394,8.06-13.98,5.959   c-2.591-2.115-1.855-8.934,3.013-14.896c3.09-3.798,7.153-6.374,10.603-6.726c0.258-0.026,0.506-0.039,0.744-0.039   c1.084,0,1.964,0.271,2.628,0.813c0.806,0.654,1.289,1.712,1.435,3.144C124.616,207.317,122.914,211.817,119.82,215.612z    M295.067,221.565c-2.592,2.111-9.125,0.01-13.987-5.953c-3.094-3.795-4.796-8.295-4.442-11.744   c0.146-1.432,0.629-2.489,1.442-3.149c0.658-0.537,1.537-0.808,2.62-0.808c0.238,0,0.487,0.013,0.745,0.039   c3.45,0.352,7.513,2.928,10.606,6.729C296.916,212.638,297.651,219.456,295.067,221.565z"></path><path d="M350.754,364.036c-3.151-10.268,0.254-21.313,8.673-28.138c18.92-15.318,41.473-40.27,41.473-72.148   c0-33.888-13.904-103.882-34.028-152.361c17.956-10.849,28.968-30.205,28.968-51.37C395.84,26.925,368.916,0,335.82,0   c-24.68,0-46.573,14.942-55.671,37.56c-25.338-7.753-53.477-12.01-79.699-12.01c-26.223,0-54.362,4.258-79.699,12.011   C111.654,14.942,89.76,0,65.08,0C31.985,0,5.06,26.925,5.06,60.02c0,21.165,11.011,40.521,28.967,51.37   C13.904,159.867,0,229.862,0,263.75c0,31.879,22.553,56.83,41.471,72.147c8.42,6.825,11.826,17.871,8.675,28.14l-5.45,17.775   c-14.627,6.092-28.027,16.166-39.846,29.989c-0.966,1.13-1.226,2.702-0.675,4.082c0.551,1.381,1.822,2.342,3.3,2.496   c5.565,0.581,11.129,0.871,16.65,0.871c3.075,0,6.134-0.101,9.174-0.281l-19.922,64.987c-1.458,4.747-0.602,9.762,2.351,13.757   C18.68,501.708,23.223,504,28.19,504h344.52c4.968,0,9.51-2.292,12.463-6.288c2.952-3.995,3.809-9.01,2.351-13.755L350.754,364.036   z M16.36,411.05c10.059-10.309,21.154-17.874,33.073-22.537c13.97-5.493,29.555-7.182,46.33-5.015   c4.083,0.521,8.305,1.284,12.623,2.279c-22.622,14.131-46.111,22.456-69.94,24.772C31.205,411.267,23.807,411.435,16.36,411.05z    M91.562,490.067c-5.868-40.267,1.918-72.161,23.693-97.036C119.326,429.481,111.541,461.378,91.562,490.067z M142.629,372.517   c-3.883-1.278-7.704-2.67-11.445-4.158c3.813-5.489,8.269-10.485,13.299-14.973C143.413,359.763,142.79,366.156,142.629,372.517z    M169.799,445.58c-12.398-22.554-18.854-45.284-19.209-67.687c-0.175-10.614,1.038-21.381,3.578-32.032   c2.353-1.589,4.802-3.104,7.346-4.516c8.22,13.449,13.273,28.266,15.021,44.107C178.568,403.698,176.302,423.89,169.799,445.58z    M200.45,382.17c-5.399,0-10.889-0.286-16.366-0.819c-2.151-15.599-7.333-30.243-15.423-43.639   c0.987-0.458,1.995-0.904,3.016-1.342h57.316c14.97,8.321,27.306,19.223,37.573,33.213   C250.383,375.701,227.01,382.17,200.45,382.17z M300.555,444.45c-0.268,0.055-0.536,0.081-0.799,0.081   c-1.863,0-3.531-1.31-3.916-3.206c-4.509-22.235-11.277-41.558-20.114-57.429c-1.075-1.931-0.381-4.366,1.549-5.441   c1.93-1.074,4.365-0.381,5.44,1.549c9.369,16.825,16.227,36.363,20.966,59.731C304.12,441.9,302.72,444.012,300.555,444.45z    M296.478,360.114c-0.479-1.031-1.375-1.81-2.462-2.141c-1.087-0.331-2.265-0.184-3.238,0.405c-0.066,0.04-6.161,3.706-16.561,8.13   c-8.929-12.526-19.675-23.061-32.067-31.439c19.685-4.356,32.571-18.878,38.045-31.575c0.875-2.029-0.061-4.383-2.09-5.257   c-2.028-0.874-4.382,0.063-5.257,2.089c-5.984,13.88-21.458,27.935-42.517,28.044h-25.88v-29.627   c20.249-0.774,39.53-7.423,39.53-19.453c0-12.828-21.898-19.54-43.53-19.54s-43.53,6.712-43.53,19.54   c0,12.031,19.281,18.679,39.53,19.453v29.627h-25.6c-21.207,0-36.775-14.085-42.797-28.044c-0.875-2.029-3.231-2.964-5.257-2.089   c-2.028,0.875-2.963,3.229-2.088,5.257c5.689,13.188,18.644,26.464,36.459,31.125c-3.06,1.718-6.019,3.561-8.82,5.518   c-9.878,6.871-18.151,15.305-24.669,25.065c-8.525-3.799-13.497-6.788-13.55-6.821c-0.974-0.59-2.151-0.74-3.24-0.408   c-1.089,0.331-1.985,1.109-2.464,2.142c-2.541,5.47-5.832,10.572-9.783,15.202c-14.377-1.603-27.976-0.537-40.555,3.166   l3.709-12.099c4.112-13.404-0.317-27.81-11.287-36.702C28.94,315.458,8,292.475,8,263.75c0-33.886,14.277-104.854,34.765-152.51   c7.566-17.592,15.363-30.229,22.545-36.544c12.823-11.263,31.575-21.076,54.229-28.38c25.496-8.232,54.231-12.767,80.911-12.767   s55.415,4.534,80.913,12.767c22.653,7.304,41.404,17.117,54.226,28.378c7.184,6.316,14.98,18.954,22.546,36.546   c20.488,47.656,34.765,118.624,34.765,152.51c0,28.725-20.94,51.708-38.509,65.933c-10.968,8.892-15.397,23.297-11.285,36.7   l11.671,38.063C325.473,395.228,305.873,380.338,296.478,360.114z"></path></g></svg></svg> <defs><filter id="colors5845126659"><feColorMatrix type="matrix" values="0 0 0 0 0.109375  0 0 0 0 0.03125  0 0 0 0 0.36328125  0 0 0 1 0" class="icon-fecolormatrix"></feColorMatrix></filter> <filter id="colorsf846656469"><feColorMatrix type="matrix" values="0 0 0 0 0.99609375  0 0 0 0 0.99609375  0 0 0 0 0.99609375  0 0 0 1 0" class="icon-fecolormatrix"></feColorMatrix></filter> <filter id="colorsb2908628929"><feColorMatrix type="matrix" values="0 0 0 0 0  0 0 0 0 0  0 0 0 0 0  0 0 0 1 0" class="icon-fecolormatrix"></feColorMatrix></filter></defs></g></g> <g transform="translate(67,15.156745910644531)"><g data-gra="path-name" fill-rule="" class="tp-name iconsvg-namesvg"><g transform="scale(1)"><g><path d="M23.66-37.05C23.4-37.7 22.95-38.22 22.23-38.55 21.45-38.87 20.61-39 19.96-39.52 19.7-39.78 19.44-40.11 19.18-40.3 17.16-41.73 15.54-37.96 14.95-36.73 14.24-35.1 13.59-33.48 13.07-31.72 12.68-30.36 12.42-29.12 11.44-27.95 11.12-27.56 10.66-27.23 10.4-26.71 9.55-26 8.71-25.29 7.87-24.64 7.02-23.98 7.02-24.7 7.08-25.48 7.15-26.52 7.8-27.95 8.06-29.05 8.32-30.23 8.71-31.46 9.1-32.63 10.08-35.75 11.51-39 11.89-42.25 12.03-43.09 11.83-43.62 11.25-43.88 10.79-44.13 10.21-44.33 9.81-43.62 8.26-40.37 6.57-37.12 5.13-33.8 3.77-30.75 2.02-27.17 1.95-23.79 1.89-21.97 3.38-19.7 4.75-19.63 6.11-19.5 7.41-19.63 8.64-20.48 8.97-20.67 9.23-21.06 9.69-20.8 9.75-20.67 9.81-20.48 9.81-20.28 9.81-18.39 9.29-16.51 9.17-14.63 8.91-10.53 9.29-6.37 9.88-2.34 10.14-0.26 10.72 0.13 12.22-0.39 12.48-0.52 12.74-0.65 12.94-0.78 13.39-0.78 13.65-1.17 13.97-1.56 15.67-3.71 15.93-6.37 16.51-8.91 17.23-11.83 18-14.76 18.85-17.68 19.82-21.45 20.93-25.09 22.04-28.8 22.62-30.68 24.57-34.71 23.66-37.05ZM47.64-18.72C47.78-19.11 47.91-19.5 47.97-19.89 48.88-23.27 49.01-27.11 48.1-30.48 47.19-33.73 45.05-37.77 41.92-38.61 41.08-38.87 40.89-39.45 41.02-40.69 41.08-42.19 41.21-43.75 40.43-44.85 39.2-46.61 34.06-42.7 32.95-41.66 30.48-39.13 28.93-35.62 28.02-32.05 26.78-27.3 26.39-21.84 26.65-16.96 26.84-12.94 27.69-9.36 29.32-6.37 29.12-6.04 31.66-2.99 31.98-2.6 32.89-1.63 33.93-0.78 35.23-0.39 36.73 0 38.35-0.46 39.65-1.36 40.56-1.95 41.08-2.93 41.8-3.77 42.7-4.81 43.62-5.85 44.39-7.08 46.41-10.4 46.54-14.95 47.64-18.72ZM35.95-4.36C35.69-4.16 35.3-4.03 35.03-4.16 34.32-4.49 34.38-5.59 34.52-6.37 35.36-10.53 36.27-14.69 37.12-18.91 37.51-21 37.96-23.07 38.35-25.16 38.67-26.65 38.74-28.86 40.04-29.77 41.47-30.16 42.9-30.75 44.33-29.64 44.39-29.12 44.46-28.54 44.72-28.14 44.72-27.82 44.78-27.56 44.78-27.23 44.72-26.07 45.05-24.96 45.05-23.79 45.05-23.66 45.05-23.53 45.05-23.34 44.78-22.88 44.78-22.36 44.78-21.78 43.55-15.47 40.95-9.1 36.47-4.75 36.34-4.62 36.14-4.42 35.95-4.36ZM74.1-37.05C73.84-37.7 73.38-38.22 72.67-38.55 71.89-38.87 71.05-39 70.39-39.52 70.13-39.78 69.88-40.11 69.61-40.3 67.6-41.73 65.97-37.96 65.39-36.73 64.67-35.1 64.03-33.48 63.5-31.72 63.11-30.36 62.85-29.12 61.88-27.95 61.55-27.56 61.1-27.23 60.84-26.71 59.99-26 59.15-25.29 58.3-24.64 57.46-23.98 57.46-24.7 57.52-25.48 57.59-26.52 58.24-27.95 58.5-29.05 58.76-30.23 59.15-31.46 59.54-32.63 60.52-35.75 61.95-39 62.33-42.25 62.46-43.09 62.27-43.62 61.69-43.88 61.23-44.13 60.64-44.33 60.25-43.62 58.7-40.37 57-37.12 55.57-33.8 54.21-30.75 52.45-27.17 52.39-23.79 52.32-21.97 53.82-19.7 55.18-19.63 56.55-19.5 57.85-19.63 59.08-20.48 59.41-20.67 59.67-21.06 60.13-20.8 60.19-20.67 60.25-20.48 60.25-20.28 60.25-18.39 59.73-16.51 59.6-14.63 59.34-10.53 59.73-6.37 60.32-2.34 60.58-0.26 61.16 0.13 62.66-0.39 62.92-0.52 63.18-0.65 63.38-0.78 63.83-0.78 64.09-1.17 64.41-1.56 66.11-3.71 66.36-6.37 66.95-8.91 67.66-11.83 68.44-14.76 69.29-17.68 70.27-21.45 71.37-25.09 72.47-28.8 73.06-30.68 75.01-34.71 74.1-37.05Z" transform="translate(-1.9482457637786865, 45.2990837097168)"></path></g> <!----> <!----> <!----> <!----> <!----> <!----> <!----></g></g> <!----></g></g><defs v-gra="od"></defs></svg>